<?xml version="1.0" encoding="UTF-8"?>
<svg width="150" height="600" viewBox="0 0 150 600" xmlns="http://www.w3.org/2000/svg">
  <!-- Artistic frame with decorative border -->
  <defs>
    <pattern id="dots" x="0" y="0" width="10" height="10" patternUnits="userSpaceOnUse">
      <circle cx="5" cy="5" r="1" fill="#666"/>
    </pattern>
  </defs>
  <rect x="0" y="0" width="150" height="600" fill="white" stroke="#666" stroke-width="2"/>
  <!-- Decorative border -->
  <rect x="5" y="5" width="140" height="590" fill="none" stroke="url(#dots)" stroke-width="1"/>
  <!-- Corner decorations -->
  <path d="M0,0 L30,0 L30,2 L2,2 L2,30 L0,30 Z" fill="#666"/>
  <path d="M120,0 L150,0 L150,30 L148,30 L148,2 L120,2 Z" fill="#666"/>
  <path d="M0,570 L0,600 L30,600 L30,598 L2,598 L2,570 Z" fill="#666"/>
  <path d="M120,598 L120,600 L150,600 L150,570 L148,570 L148,598 Z" fill="#666"/>
</svg> 