<?xml version="1.0" encoding="UTF-8"?>
<svg width="150" height="600" viewBox="0 0 150 600" xmlns="http://www.w3.org/2000/svg">
  <!-- Artistic frame with wave pattern -->
  <defs>
    <pattern id="waves" x="0" y="0" width="20" height="20" patternUnits="userSpaceOnUse">
      <path d="M0,10 Q5,5 10,10 T20,10" fill="none" stroke="#666" stroke-width="1"/>
    </pattern>
  </defs>
  <rect x="0" y="0" width="150" height="600" fill="white" stroke="#666" stroke-width="2"/>
  <!-- Decorative border -->
  <rect x="5" y="5" width="140" height="590" fill="none" stroke="url(#waves)" stroke-width="1"/>
  <!-- Corner decorations -->
  <path d="M0,0 L40,0 L40,2 L2,2 L2,40 L0,40 Z" fill="#666"/>
  <path d="M110,0 L150,0 L150,40 L148,40 L148,2 L110,2 Z" fill="#666"/>
  <path d="M0,560 L0,600 L40,600 L40,598 L2,598 L2,560 Z" fill="#666"/>
  <path d="M110,598 L110,600 L150,600 L150,560 L148,560 L148,598 Z" fill="#666"/>
</svg> 