<?xml version="1.0" encoding="UTF-8"?>
<svg width="150" height="600" viewBox="0 0 150 600" xmlns="http://www.w3.org/2000/svg">
  <!-- Artistic frame with geometric pattern -->
  <defs>
    <pattern id="geometric" x="0" y="0" width="20" height="20" patternUnits="userSpaceOnUse">
      <path d="M0,0 L20,20 M20,0 L0,20" stroke="#666" stroke-width="1"/>
    </pattern>
  </defs>
  <rect x="0" y="0" width="150" height="600" fill="white" stroke="#666" stroke-width="2"/>
  <!-- Decorative border -->
  <rect x="5" y="5" width="140" height="590" fill="none" stroke="url(#geometric)" stroke-width="1"/>
  <!-- Corner decorations -->
  <path d="M0,0 L50,0 L50,2 L2,2 L2,50 L0,50 Z" fill="#666"/>
  <path d="M100,0 L150,0 L150,50 L148,50 L148,2 L100,2 Z" fill="#666"/>
  <path d="M0,550 L0,600 L50,600 L50,598 L2,598 L2,550 Z" fill="#666"/>
  <path d="M100,598 L100,600 L150,600 L150,550 L148,550 L148,598 Z" fill="#666"/>
</svg> 