<?xml version="1.0" encoding="UTF-8"?>
<svg width="150" height="600" viewBox="0 0 150 600" xmlns="http://www.w3.org/2000/svg">
  <!-- Autumn frame with leaf pattern -->
  <defs>
    <pattern id="leaf" x="0" y="0" width="30" height="30" patternUnits="userSpaceOnUse">
      <path d="M15,0 C20,10 30,15 30,25 C30,35 20,40 15,50 C10,40 0,35 0,25 C0,15 10,10 15,0" 
            fill="#8B4513" opacity="0.3"/>
    </pattern>
  </defs>
  <rect x="0" y="0" width="150" height="600" fill="white" stroke="#8B4513" stroke-width="3"/>
  <!-- Decorative border -->
  <rect x="5" y="5" width="140" height="590" fill="none" stroke="url(#leaf)" stroke-width="1"/>
  <!-- Corner decorations -->
  <path d="M0,0 L40,0 L40,3 L3,3 L3,40 L0,40 Z" fill="#8B4513"/>
  <path d="M110,0 L150,0 L150,40 L147,40 L147,3 L110,3 Z" fill="#8B4513"/>
  <path d="M0,560 L0,600 L40,600 L40,597 L3,597 L3,560 Z" fill="#8B4513"/>
  <path d="M110,597 L110,600 L150,600 L150,560 L147,560 L147,597 Z" fill="#8B4513"/>
</svg> 