<?xml version="1.0" encoding="UTF-8"?>
<svg width="150" height="600" viewBox="0 0 150 600" xmlns="http://www.w3.org/2000/svg">
  <!-- Modern geometric frame -->
  <defs>
    <pattern id="geometric" x="0" y="0" width="30" height="30" patternUnits="userSpaceOnUse">
      <path d="M0,0 L30,30 M30,0 L0,30" stroke="#2C3E50" stroke-width="0.5" opacity="0.2"/>
      <circle cx="15" cy="15" r="2" fill="#2C3E50" opacity="0.2"/>
    </pattern>
  </defs>
  <rect x="0" y="0" width="150" height="600" fill="white" stroke="#2C3E50" stroke-width="2"/>
  <!-- Decorative border -->
  <rect x="5" y="5" width="140" height="590" fill="none" stroke="url(#geometric)" stroke-width="1"/>
  <!-- Corner decorations -->
  <path d="M0,0 L50,0 L50,2 L2,2 L2,50 L0,50 Z" fill="#2C3E50"/>
  <path d="M100,0 L150,0 L150,50 L148,50 L148,2 L100,2 Z" fill="#2C3E50"/>
  <path d="M0,550 L0,600 L50,600 L50,598 L2,598 L2,550 Z" fill="#2C3E50"/>
  <path d="M100,598 L100,600 L150,600 L150,550 L148,550 L148,598 Z" fill="#2C3E50"/>
</svg> 